<svg width="512" height="512" viewBox="0 0 512 512" fill="none" xmlns="http://www.w3.org/2000/svg">
<g clip-path="url(#clip0_54939_1265)">
<path d="M41.4404 203.642C21.2595 246.231 14.2014 298.073 29.5148 343.313C33.8022 356.001 39.1905 368.291 45.6182 380.04C52.8556 393.243 64.1174 400.966 77.4695 408.637C147.717 448.937 237.255 466.188 318.612 461.702C368.247 458.949 413.066 446.155 446.318 407.974C486.627 361.663 498.042 308.454 480.563 248.346C462.396 185.776 430.75 133.06 385.625 90.1969C281.284 -8.94983 92.2467 96.4152 41.4404 203.642Z" stroke="#C04E69" stroke-width="1.677"/>
<path d="M251.218 86.7565C243.581 86.7305 235.994 87.9812 228.77 90.4568" stroke="#ED7491" stroke-width="1.677"/>
<path d="M228.77 90.4566C227.087 87.8784 224.841 85.7155 222.202 84.1307C219.563 82.5459 216.599 81.5804 213.533 81.307C190.243 78.757 170.768 86.5071 155.106 104.557C145.781 115.313 144.448 126.247 151.106 137.359" stroke="#F2A5C2" stroke-width="1.677"/>
<path d="M151.106 137.348C144.026 142.512 137.682 148.618 132.251 155.497C131.483 156.464 130.612 157.345 129.652 158.123C128.713 158.973 127.634 159.655 126.462 160.136C110.796 164.236 98.8136 171.882 90.5148 183.074" stroke="#ED7491" stroke-width="1.677"/>
<path d="M90.5148 183.074C78.9219 197.32 68.321 209.249 71.0221 227.956C71.7624 233.029 75.2449 237.166 81.4695 240.368" stroke="#C04E69" stroke-width="1.677"/>
<path d="M81.4695 240.368C77.1388 258.593 74.9558 271.447 74.9203 278.932C74.8185 302.507 72.1949 337.502 87.5296 357.229C96.1662 368.323 104.32 381.06 112.423 389.318C154.745 432.544 228 429.792 283.547 426.046C325.462 423.242 382.384 410.242 408.323 373.745C451.257 313.365 422.898 209.017 385.798 153.151C360.194 114.589 324.523 92.3381 278.786 86.3994" stroke="#ED7491" stroke-width="1.677"/>
<path d="M278.786 86.3992C279.424 80.7659 276.977 77.4531 271.494 76.4076C260.997 74.3936 254.236 77.8432 251.213 86.7563" stroke="#F2A5C2" stroke-width="1.677"/>
<path d="M278.786 86.3994C274.429 99.8573 253.129 105.158 251.218 86.7565" stroke="#EB8DAF" stroke-width="1.677"/>
<path d="M81.4695 240.368C87.9229 243.343 95.2091 243.983 102.082 242.178C110.083 240.19 115.179 238.432 117.371 236.902C121.128 234.285 125.215 232.177 129.525 230.632C137.067 227.956 146.264 212.74 152.584 202.087C158.318 192.427 160.457 178.332 153.297 168.902C143.31 155.751 125.932 162.148 113.523 166.225C108.809 167.781 101.14 173.397 90.5148 183.074" stroke="#B93756" stroke-width="1.677"/>
<path d="M228.77 90.4568C233.688 102.971 230.374 113.573 220.054 121.679C210.071 129.518 199.086 135.989 187.392 140.922C187.012 141.034 186.613 141.069 186.219 141.024C185.493 140.972 184.766 141.103 184.104 141.405C172.23 146.836 161.231 145.485 151.108 137.353" stroke="#EB8DAF" stroke-width="1.677"/>
<path d="M353.363 231.448C357.797 247.582 365.212 260.369 375.607 269.807C377.714 271.737 380.27 273.111 383.042 273.801C385.815 274.491 388.716 274.476 391.481 273.758C399.024 272.151 404.885 269.577 407.534 262.084C413.156 246.51 413.761 229.567 409.266 213.632C405.468 199.767 388.959 176.624 372.142 181.314C350.307 187.38 347.987 211.951 353.363 231.448Z" stroke="#B93756" stroke-width="1.677"/>
<path d="M192.633 205.961C182.339 213.989 183.153 224.286 183.257 236.444C183.183 240.526 183.706 244.596 184.811 248.525C200.378 298.047 283.953 293.203 292.948 241.079C297.916 212.329 276.921 203.104 253.811 217.677C250.464 219.986 246.606 221.447 242.569 221.932C236.301 222.443 222.184 222.315 219.477 215.586C215.223 204.906 208.215 197.515 195.778 203.277C194.224 203.991 193.639 205.163 192.619 205.953" stroke="#B93756" stroke-width="1.677"/>
<path d="M129.728 210.702C134.494 210.039 137.781 206.573 139.589 200.303" stroke="#B93756" stroke-width="1.677"/>
<path d="M139.589 200.303C144.906 194.057 151.387 171.603 133.271 175.096" stroke="#C68897" stroke-width="1.677"/>
<path d="M133.271 175.1C121.117 173.52 114.72 180.885 112.071 191.336C109.497 201.633 109.854 202.397 117.084 209.713C117.665 210.279 118.439 210.605 119.25 210.624L129.722 210.702" stroke="#C04E69" stroke-width="1.677"/>
<path d="M133.271 175.1L121.243 178.72C120.542 178.93 119.943 179.393 119.562 180.019C111.943 192.661 107.281 213.299 129.652 210.349" stroke="#FAC5D2" stroke-width="1.677"/>
<path d="M129.652 210.345C129.678 210.473 129.702 210.574 129.728 210.702" stroke="#ED7491" stroke-width="1.677"/>
<path d="M139.589 200.303C136.85 204.173 133.493 207.565 129.652 210.345" stroke="#F3AEBE" stroke-width="1.677"/>
<path d="M104.962 215.522C102.092 211.229 100.236 206.339 99.5342 201.223C99.3823 200.179 98.8217 199.875 97.8525 200.311C94.4127 201.702 91.4316 204.03 89.2474 207.031C87.0633 210.031 85.7634 213.583 85.4954 217.285C85.3431 218.263 85.4055 219.261 85.6783 220.212C85.9512 221.163 86.4279 222.043 87.0753 222.791C93.8783 230.462 101.675 224.116 105.09 217.489C105.239 217.178 105.306 216.835 105.284 216.491C105.261 216.147 105.151 215.815 104.962 215.527" stroke="#B93756" stroke-width="1.677"/>
<path d="M371.941 223.547C377.012 226.961 382.007 227.726 386.924 225.84" stroke="#C04E69" stroke-width="1.677"/>
<path d="M386.924 225.841C390.277 223.417 392.547 219.775 393.247 215.697C393.948 211.618 393.022 207.427 390.67 204.023C377.268 185.111 360.578 197.753 362.361 216.589C362.394 217.003 362.51 217.407 362.702 217.775C362.895 218.143 363.161 218.468 363.483 218.73C365.952 220.886 368.828 222.524 371.941 223.547" stroke="#C68897" stroke-width="1.677"/>
<path d="M386.924 225.84C381.829 226.039 376.744 225.261 371.941 223.547" stroke="#FAC5D2" stroke-width="1.677"/>
<path d="M400.072 235.22C400.075 235.02 400.016 234.825 399.903 234.66C399.79 234.495 399.63 234.369 399.443 234.3C399.256 234.23 399.052 234.22 398.859 234.271C398.666 234.321 398.493 234.43 398.365 234.583C394.867 238.803 390.012 241.676 384.631 242.713C384.47 242.746 384.317 242.813 384.182 242.908C384.047 243.003 383.933 243.125 383.848 243.266C383.762 243.408 383.707 243.565 383.685 243.729C383.663 243.892 383.675 244.059 383.72 244.217C384.286 246.42 385.387 248.448 386.924 250.124C388.46 251.8 390.386 253.072 392.531 253.826C393.248 254.112 394.049 254.107 394.763 253.812C395.477 253.517 396.047 252.955 396.353 252.246C398.713 246.876 399.978 241.09 400.074 235.226" stroke="#B93756" stroke-width="1.677"/>
<path d="M274.517 244.581C270.264 237.742 258.566 237.337 248.365 243.692C238.163 250.047 233.364 260.733 237.615 267.55C241.865 274.367 253.566 274.795 263.768 268.439C273.969 262.082 278.77 251.398 274.517 244.573" stroke="#B93756" stroke-width="1.677"/>
<path d="M100.656 442.841C182.294 477.792 278.048 493.051 365.906 476C417.045 466.086 456.341 439.512 483.795 396.276C509.045 356.541 517.335 313.231 508.664 266.348C496.814 202.219 465.984 143.677 422.286 95.6842C400.378 71.6133 377.649 51.1758 349.262 39.9609C297.184 19.4185 236.822 27.1155 183.339 49.5437C132.045 70.8358 86.8218 104.505 51.7088 147.543C17.0303 189.725 3.62798 235.22 0.340455 288.591C-1.90187 325.141 6.9155 366.786 26.9931 392.863C43.6009 414.422 74.4404 431.601 100.656 442.841Z" fill="#8C112E"/>
<path d="M133.271 175.1C151.387 171.605 144.914 194.062 139.589 200.308C136.85 204.177 133.493 207.57 129.652 210.349C107.281 213.305 111.943 192.661 119.562 180.019C119.943 179.393 120.542 178.93 121.243 178.72L133.271 175.1Z" fill="white"/>
<path d="M386.924 225.841C348.154 233.62 363.454 172.135 390.673 204.02C393.025 207.425 393.949 211.617 393.248 215.695C392.547 219.774 390.277 223.416 386.924 225.841Z" fill="white"/>
<path d="M251.218 86.7565C253.129 105.158 274.429 99.8573 278.786 86.3994C324.523 92.3381 360.195 114.589 385.803 153.151C422.903 209.02 451.261 313.365 408.328 373.745C382.389 410.243 325.466 423.242 283.552 426.046C228.004 429.792 154.749 432.544 112.428 389.318C104.324 381.06 96.1722 368.317 87.5341 357.229C72.1903 337.502 74.8185 302.507 74.9249 278.932C74.9502 271.435 77.1333 258.581 81.4741 240.368C87.9275 243.343 95.2136 243.983 102.086 242.178C110.088 240.191 115.184 238.432 117.376 236.902C121.133 234.285 125.219 232.177 129.529 230.632C137.072 227.956 146.269 212.74 152.589 202.087C158.322 192.427 160.461 178.332 153.301 168.902C143.314 155.751 125.936 162.148 113.527 166.226C108.814 167.781 101.145 173.397 90.5193 183.074C98.7979 171.882 110.78 164.236 126.466 160.135C127.638 159.653 128.718 158.972 129.657 158.121C130.614 157.344 131.485 156.464 132.251 155.497C137.682 148.618 144.026 142.512 151.106 137.348C161.222 145.48 172.221 146.831 184.103 141.401C184.765 141.098 185.492 140.967 186.218 141.019C186.611 141.064 187.01 141.03 187.39 140.918C199.085 135.985 210.069 129.513 220.053 121.675C230.373 113.569 233.686 102.966 228.769 90.4523C235.993 87.978 243.581 86.7289 251.218 86.7565ZM353.363 231.448C357.797 247.583 365.212 260.369 375.607 269.807C377.714 271.738 380.27 273.111 383.042 273.801C385.815 274.491 388.716 274.476 391.481 273.758C399.024 272.151 404.885 269.577 407.535 262.084C413.156 246.51 413.761 229.567 409.266 213.632C405.468 199.767 388.959 176.624 372.142 181.314C350.31 187.38 347.99 211.951 353.363 231.448ZM192.633 205.961C182.339 213.989 183.153 224.286 183.257 236.445C183.183 240.526 183.706 244.596 184.811 248.526C200.378 298.047 283.953 293.203 292.948 241.079C297.916 212.33 276.921 203.104 253.811 217.677C250.464 219.987 246.606 221.447 242.569 221.932C236.301 222.443 222.184 222.315 219.477 215.586C215.223 204.906 208.215 197.515 195.778 203.277C194.243 203.999 193.659 205.171 192.633 205.961Z" fill="#E65C7D"/>
<path d="M104.962 215.522C105.151 215.811 105.261 216.143 105.284 216.486C105.306 216.83 105.239 217.174 105.09 217.484C101.675 224.111 93.8783 230.457 87.0753 222.786C86.4279 222.038 85.9512 221.158 85.6783 220.208C85.4055 219.257 85.3431 218.258 85.4954 217.28C85.7634 213.579 87.0633 210.026 89.2474 207.026C91.4316 204.026 94.4127 201.698 97.8525 200.306C98.8217 199.873 99.3823 200.177 99.5342 201.218C100.235 206.336 102.092 211.228 104.962 215.522Z" fill="#E65C7D"/>
<path d="M139.589 200.303C137.779 206.573 134.492 210.039 129.728 210.702C129.702 210.574 129.678 210.473 129.652 210.345C133.493 207.565 136.85 204.173 139.589 200.303Z" fill="#E65C7D"/>
<path d="M400.072 235.22C399.977 241.084 398.712 246.87 396.352 252.239C396.046 252.949 395.475 253.511 394.761 253.806C394.048 254.101 393.247 254.106 392.529 253.82C390.385 253.065 388.459 251.794 386.922 250.118C385.385 248.442 384.285 246.414 383.718 244.211C383.673 244.052 383.661 243.886 383.683 243.722C383.705 243.559 383.761 243.402 383.846 243.26C383.932 243.119 384.045 242.997 384.18 242.902C384.315 242.807 384.468 242.74 384.63 242.707C390.011 241.67 394.865 238.796 398.363 234.577C398.492 234.423 398.665 234.313 398.859 234.262C399.053 234.212 399.258 234.222 399.445 234.293C399.633 234.363 399.794 234.49 399.906 234.656C400.019 234.822 400.077 235.019 400.072 235.22Z" fill="#E65C7D"/>
<path d="M263.762 268.447C273.953 262.101 278.766 251.416 274.512 244.58C270.258 237.744 258.549 237.347 248.358 243.692C238.167 250.037 233.353 260.722 237.607 267.558C241.861 274.394 253.571 274.792 263.762 268.447Z" fill="#E65C7D"/>
<path d="M100.656 442.841C74.4404 431.601 43.6009 414.422 26.9931 392.863C6.9155 366.786 -1.90187 325.141 0.340455 288.591C3.62798 235.22 17.0303 189.725 51.7088 147.543C86.8218 104.505 132.045 70.8358 183.339 49.5437C236.822 27.1155 297.184 19.4185 349.262 39.9609C377.646 51.1758 400.375 71.6163 422.287 95.6766C465.985 143.67 496.816 202.215 508.665 266.34C517.354 313.212 509.065 356.524 483.796 396.276C456.329 439.503 417.033 466.077 365.907 476C278.048 493.051 182.294 477.785 100.656 442.841ZM41.4406 203.642C21.2597 246.231 14.2015 298.073 29.5149 343.312C33.8023 356.001 39.1906 368.291 45.6183 380.04C52.8558 393.243 64.1175 400.966 77.4697 408.637C147.717 448.937 237.255 466.188 318.612 461.702C368.247 458.949 413.066 446.155 446.318 407.974C486.627 361.663 498.042 308.454 480.564 248.346C462.396 185.776 430.75 133.06 385.625 90.1968C281.284 -8.94992 92.2468 96.4152 41.4406 203.642Z" fill="#8C112E"/>
<path d="M81.4695 240.368C75.251 237.158 71.7685 233.02 71.0221 227.956C68.321 209.249 78.9219 197.32 90.5148 183.074C101.14 173.387 108.809 167.771 113.523 166.225C125.932 162.148 143.31 155.751 153.297 168.902C160.457 178.332 158.318 192.427 152.584 202.087C146.264 212.74 137.067 227.956 129.525 230.632C125.215 232.177 121.128 234.285 117.371 236.902C115.179 238.433 110.083 240.191 102.082 242.178C95.2091 243.983 87.9229 243.343 81.4695 240.368ZM129.728 210.702C134.494 210.039 137.781 206.573 139.589 200.303C144.906 194.058 151.387 171.603 133.271 175.096C121.117 173.515 114.72 180.881 112.071 191.331C109.497 201.628 109.854 202.393 117.084 209.708C117.665 210.274 118.439 210.6 119.25 210.62L129.728 210.702ZM104.965 215.519C102.095 211.226 100.239 206.336 99.5372 201.22C99.3853 200.176 98.8247 199.872 97.8555 200.308C94.4157 201.699 91.4346 204.027 89.2505 207.027C87.0663 210.028 85.7665 213.58 85.4984 217.282C85.3461 218.259 85.4085 219.258 85.6814 220.209C85.9542 221.16 86.431 222.04 87.0784 222.788C93.8813 230.459 101.678 224.113 105.093 217.486C105.242 217.175 105.309 216.831 105.286 216.487C105.263 216.143 105.151 215.811 104.962 215.522L104.965 215.519Z" fill="#8C112E"/>
<path d="M353.363 231.448C347.987 211.951 350.307 187.379 372.142 181.314C388.959 176.624 405.47 199.767 409.266 213.632C413.761 229.567 413.156 246.51 407.535 262.084C404.885 269.577 399.027 272.151 391.481 273.758C388.716 274.476 385.815 274.491 383.042 273.801C380.27 273.111 377.714 271.737 375.607 269.807C365.214 260.351 357.799 247.565 353.363 231.448ZM371.938 223.546C377.009 226.96 382.004 227.724 386.921 225.839C390.274 223.415 392.544 219.774 393.244 215.695C393.945 211.617 393.019 207.426 390.667 204.022C377.265 185.11 360.575 197.752 362.358 216.588C362.391 217.002 362.507 217.405 362.699 217.773C362.892 218.141 363.157 218.466 363.48 218.729C365.949 220.885 368.827 222.524 371.941 223.548L371.938 223.546ZM400.069 235.218C400.072 235.019 400.013 234.823 399.9 234.659C399.787 234.494 399.627 234.368 399.44 234.298C399.253 234.229 399.049 234.218 398.856 234.269C398.663 234.32 398.49 234.429 398.362 234.582C394.864 238.801 390.009 241.675 384.628 242.712C384.467 242.745 384.314 242.811 384.179 242.907C384.044 243.002 383.93 243.124 383.845 243.265C383.759 243.406 383.704 243.564 383.682 243.727C383.659 243.891 383.671 244.057 383.717 244.216C384.283 246.418 385.384 248.447 386.921 250.123C388.457 251.799 390.383 253.07 392.528 253.825C393.245 254.111 394.046 254.106 394.76 253.811C395.474 253.516 396.044 252.954 396.35 252.244C398.711 246.874 399.977 241.086 400.072 235.22L400.069 235.218Z" fill="#8C112E"/>
<path d="M192.633 205.961C193.652 205.171 194.237 203.999 195.791 203.285C208.226 197.524 215.237 204.915 219.491 215.594C222.192 222.323 236.308 222.45 242.583 221.94C246.619 221.454 250.478 219.994 253.824 217.685C276.934 203.107 297.93 212.333 292.962 241.087C283.967 293.21 200.392 298.052 184.824 248.533C183.72 244.604 183.197 240.533 183.27 236.452C183.159 224.286 182.345 213.989 192.633 205.961ZM274.517 244.581C270.264 237.742 258.566 237.337 248.365 243.692C238.163 250.047 233.364 260.733 237.615 267.55C241.865 274.367 253.566 274.795 263.768 268.439C273.969 262.082 278.762 251.405 274.517 244.581Z" fill="#8C112E"/>
<path d="M41.4404 203.642C92.2467 96.4153 281.284 -8.95435 385.625 90.1969C430.75 133.068 462.396 185.784 480.563 248.346C498.043 308.472 486.628 361.681 446.318 407.974C413.067 446.155 368.251 458.949 318.612 461.702C237.255 466.188 147.717 448.937 77.4695 408.637C64.1174 400.966 52.8587 393.243 45.6182 380.041C39.1905 368.291 33.8022 356.001 29.5148 343.313C14.2014 298.073 21.2595 246.231 41.4404 203.642ZM251.218 86.7565C243.581 86.7305 235.994 87.9812 228.77 90.4568C227.087 87.8785 224.842 85.7156 222.202 84.1308C219.563 82.546 216.599 81.5806 213.533 81.3071C190.243 78.7572 170.768 86.5073 155.106 104.557C145.781 115.313 144.448 126.247 151.106 137.359C144.026 142.52 137.683 148.622 132.251 155.497C131.483 156.464 130.612 157.345 129.652 158.123C128.713 158.974 127.634 159.655 126.462 160.136C110.796 164.236 98.8136 171.882 90.5148 183.074C78.9219 197.32 68.321 209.249 71.0221 227.956C71.7624 233.028 75.2449 237.166 81.4695 240.368C77.1388 258.593 74.9558 271.447 74.9203 278.932C74.8185 302.507 72.1949 337.502 87.5296 357.229C96.1662 368.323 104.32 381.06 112.423 389.318C154.745 432.544 228 429.792 283.547 426.046C325.462 423.242 382.384 410.242 408.323 373.745C451.257 313.365 422.898 209.017 385.798 153.151C360.194 114.589 324.523 92.3381 278.786 86.3994C279.424 80.7661 276.977 77.4533 271.494 76.4078C261 74.3948 254.241 77.8444 251.218 86.7565Z" fill="#F48BA4"/>
<path d="M133.271 175.1L121.243 178.72C120.542 178.93 119.943 179.393 119.562 180.019C111.943 192.661 107.281 213.299 129.652 210.349C129.678 210.477 129.702 210.579 129.728 210.707L119.256 210.629C118.445 210.609 117.671 210.283 117.09 209.717C109.854 202.402 109.494 201.637 112.077 191.34C114.72 180.875 121.116 173.515 133.271 175.1Z" fill="#F48BA4"/>
<path d="M371.941 223.547C376.744 225.261 381.829 226.039 386.924 225.84C382.007 227.727 377.012 226.962 371.941 223.547Z" fill="#F48BA4"/>
<path d="M278.786 86.3993C274.429 99.8571 253.129 105.158 251.218 86.7564C254.25 77.8605 261.01 74.4109 271.499 76.4077C276.977 77.4532 279.424 80.766 278.786 86.3993Z" fill="#F0BEE0"/>
<path d="M228.77 90.4566C233.688 102.971 230.374 113.573 220.054 121.679C210.071 129.518 199.086 135.989 187.392 140.922C187.012 141.034 186.613 141.069 186.219 141.024C185.493 140.972 184.766 141.103 184.104 141.405C172.23 146.835 161.231 145.484 151.108 137.352C144.458 126.238 145.791 115.303 155.109 104.547C170.779 86.5015 190.255 78.7514 213.536 81.2963C216.602 81.5714 219.566 82.5387 222.205 84.1254C224.844 85.712 227.089 87.8768 228.77 90.4566Z" fill="#F0BEE0"/>
<path d="M383.094 230.689C391.646 228.461 396.368 218.163 393.64 207.687C390.912 197.212 381.768 190.526 373.216 192.755C364.664 194.983 359.942 205.281 362.67 215.757C365.398 226.232 374.542 232.917 383.094 230.689Z" fill="white"/>
<path d="M110.597 201.906C104.254 185.005 141.148 157.463 144.757 183.148C145.944 191.561 145.389 200.753 137.912 206.348C128.147 213.661 116.031 216.499 110.597 201.906Z" fill="white"/>
</g>
<defs>
<clipPath id="clip0_54939_1265">
<rect width="512" height="455" fill="white" transform="translate(0 28)"/>
</clipPath>
</defs>
</svg>
